<?xml version="1.0" standalone="no"?>
<!DOCTYPE svg PUBLIC "-//W3C//DTD SVG 20010904//EN"
 "http://www.w3.org/TR/2001/REC-SVG-20010904/DTD/svg10.dtd">
<svg version="1.0" xmlns="http://www.w3.org/2000/svg"
 width="260.000000pt" height="260.000000pt" viewBox="0 0 260.000000 260.000000"
 preserveAspectRatio="xMidYMid meet">
<metadata>
Created by potrace 1.11, written by Peter Selinger 2001-2013
</metadata>
<g transform="translate(0.000000,260.000000) scale(0.100000,-0.100000)"
fill="#000000" stroke="none">
<path d="M1530 2559 c0 -35 -27 -69 -69 -86 -51 -21 -76 -25 -166 -26 -124 0
-203 33 -221 93 -8 29 -25 -7 -198 -427 -104 -252 -197 -476 -207 -498 -16
-38 -105 -253 -465 -1125 -85 -206 -164 -395 -175 -420 l-21 -45 44 44 c71 72
161 101 249 79 45 -12 78 -45 100 -100 l15 -40 29 74 c15 40 36 91 45 113 10
22 39 92 65 155 26 63 51 124 56 135 5 11 33 81 63 155 l54 135 332 3 331 2
20 44 c12 27 19 64 18 97 -1 70 12 101 55 134 20 15 34 30 32 34 -2 3 -151 6
-330 5 -293 0 -326 1 -321 15 6 16 318 785 338 831 5 14 11 30 13 35 9 30 80
195 84 195 3 0 43 -94 89 -208 110 -270 207 -507 228 -555 l17 -39 17 39 c10
21 50 117 90 213 39 96 77 186 84 200 12 23 8 37 -34 140 -26 63 -94 228 -150
365 -57 138 -105 252 -107 254 -2 2 -4 -7 -4 -20z"/>
<path d="M1988 1242 c-26 -64 -50 -124 -53 -133 -5 -13 8 -15 103 -15 l109 0
-50 125 c-28 69 -53 129 -56 133 -3 4 -27 -46 -53 -110z"/>
<path d="M1935 628 c34 -84 95 -234 135 -333 121 -300 119 -296 120 -257 1
115 116 152 256 81 33 -16 80 -48 103 -70 49 -44 56 -48 41 -19 -6 12 -45 103
-86 203 -94 227 -130 315 -184 445 l-43 102 -202 0 -203 0 63 -152z"/>
</g>
</svg>
