<svg viewBox="0 0 35 35" fill="none" xmlns="http://www.w3.org/2000/svg">
<path fill-rule="evenodd" clip-rule="evenodd" d="M5.52632 35L8.75 27.1717L9.84562 24.4777H18.7526L19.3122 23.1275C19.234 22.9123 19.1887 22.6627 19.1887 22.3734C19.1887 21.3211 19.7884 20.795 20.388 20.532L20.497 20.269H11.5573L17.5 5.65657L21.9989 16.6454L24.7162 10.0894L20.551 0C20.551 0 21.4108 2.08266 17.5 2.08266C13.7473 2.08266 14.4403 0.164935 14.5025 0.00992976L0 35C0 35 1.01553 32.8956 3.27092 32.8956C5.52632 32.8956 5.52632 35 5.52632 35ZM27.4225 16.645L25.9487 20.269H28.9186L27.4225 16.645ZM30.6561 24.4777H25.2056L26.3843 27.3569L29.4737 35C29.4737 35 29.1385 32.8946 31.1815 32.8953C33.2244 32.8959 35 35 35 35L30.6561 24.4777Z" fill="currentColor"/>
</svg>
